<svg width="19" height="19" viewBox="0 0 19 19" fill="none" xmlns="http://www.w3.org/2000/svg">
<path d="M13.4223 11.849H12.5988L12.307 11.5677C13.3285 10.3802 13.9435 8.83854 13.9435 7.16146C13.9435 3.42188 10.9102 0.390625 7.16803 0.390625C3.4259 0.390625 0.392578 3.42188 0.392578 7.16146C0.392578 10.901 3.4259 13.9323 7.16803 13.9323C8.84626 13.9323 10.389 13.3177 11.5773 12.2969L11.8587 12.5885V13.4115L17.0706 18.6094L18.6238 17.0573L13.4223 11.849ZM7.16803 11.849C4.57251 11.849 2.47733 9.75521 2.47733 7.16146C2.47733 4.56771 4.57251 2.47396 7.16803 2.47396C9.76355 2.47396 11.8587 4.56771 11.8587 7.16146C11.8587 9.75521 9.76355 11.849 7.16803 11.849Z" fill="white"/>
</svg>
